<?xml version="1.0" encoding="UTF-8" standalone="no"?>
<svg
   xmlns:dc="http://purl.org/dc/elements/1.1/"
   xmlns:cc="http://creativecommons.org/ns#"
   xmlns:rdf="http://www.w3.org/1999/02/22-rdf-syntax-ns#"
   xmlns:svg="http://www.w3.org/2000/svg"
   xmlns="http://www.w3.org/2000/svg"
   xmlns:sodipodi="http://sodipodi.sourceforge.net/DTD/sodipodi-0.dtd"
   xmlns:inkscape="http://www.inkscape.org/namespaces/inkscape"
   version="1.1"
   x="0px"
   y="0px"
   viewBox="0 0 4096 4096"
   xml:space="preserve"
   id="svg4"
   sodipodi:docname="android-logo.svg"
   width="4096"
   height="4096"
   inkscape:export-filename="G:\Users\suitedoalex\sites\svg\android-logo-0.png"
   inkscape:export-xdpi="96"
   inkscape:export-ydpi="96"
   inkscape:version="0.92.2 (5c3e80d, 2017-08-06)"><metadata
     id="metadata10"><rdf:RDF><cc:Work
         rdf:about=""><dc:format>image/svg+xml</dc:format><dc:type
           rdf:resource="http://purl.org/dc/dcmitype/StillImage" /><dc:title></dc:title></cc:Work></rdf:RDF></metadata><defs
     id="defs8" /><sodipodi:namedview
     pagecolor="#ffffff"
     bordercolor="#666666"
     borderopacity="1"
     objecttolerance="10"
     gridtolerance="10"
     guidetolerance="10"
     inkscape:pageopacity="0"
     inkscape:pageshadow="2"
     inkscape:window-width="1600"
     inkscape:window-height="837"
     id="namedview6"
     showgrid="false"
     inkscape:zoom="0.037241541"
     inkscape:cx="-3092.3357"
     inkscape:cy="-76.875293"
     inkscape:window-x="-8"
     inkscape:window-y="-8"
     inkscape:window-maximized="1"
     inkscape:current-layer="svg4" /><path
     id="Android"
     d="m 853.81918,1466.4559 c -113.24131,0 -200.74585,92.652 -200.74585,200.7459 v 849.3096 c 0,113.2413 92.65197,205.8933 205.89328,205.8933 113.24137,0 205.89319,-92.652 200.74589,-205.8933 v -849.3096 c 0,-108.0939 -92.65202,-200.7459 -205.89332,-200.7459 M 2495.8179,699.50363 2639.943,442.13703 c 5.1474,-15.44208 5.1474,-30.88399 -10.2946,-36.03141 -15.442,-5.14724 -30.884,0 -36.0314,10.29485 l -144.1252,262.51364 c -118.3886,-51.47313 -257.3665,-82.35731 -396.3443,-82.35731 -144.1254,0 -277.956,30.88418 -396.3447,82.35731 L 1512.6776,416.40047 c -5.1474,-15.44209 -25.7368,-20.58933 -36.0314,-10.29485 -15.4419,5.14742 -20.5893,25.73675 -10.2947,36.03141 l 144.1253,257.3666 c -293.3978,144.1251 -478.7016,422.08107 -478.7016,736.06817 h 1832.4497 c 0,-313.9871 -190.4513,-591.94307 -468.407,-736.06817 m -864.7517,401.49167 c -41.1786,0 -77.21,-36.0314 -77.21,-77.2098 0,-41.17869 36.0314,-77.21012 77.21,-77.21012 41.1787,0 77.2099,36.03143 77.2099,77.21012 0,46.3258 -36.0312,77.2098 -77.2099,77.2098 m 833.8677,0 c -41.1787,0 -77.2102,-36.0314 -77.2102,-77.2098 0,-41.17869 36.0315,-77.21012 77.2102,-77.21012 41.1787,0 77.2099,36.03143 77.2099,77.21012 0,46.3258 -36.0312,77.2098 -77.2099,77.2098 m -1328.0116,401.4918 v 1317.7168 c 0,118.3887 97.7994,216.1879 216.188,216.1879 h 149.2726 v 452.9651 c 0,113.2413 92.6519,205.8933 200.7459,205.8933 113.2413,0 205.8931,-92.652 205.8931,-205.8933 v -452.9651 h 272.8086 v 452.9651 c 0,113.2413 92.6521,205.8933 200.7461,200.7459 113.2413,0 205.8929,-92.6519 205.8929,-205.8932 v -447.8178 h 149.2729 c 118.3885,0 216.1878,-97.7992 216.1878,-216.1879 V 1502.4871 Z m 2306.0044,164.7147 c 0,-113.2413 -92.652,-200.7459 -200.7461,-200.7459 -113.2413,0 -200.7457,92.652 -200.7457,205.8933 v 849.3094 c 0,113.2416 92.6518,200.7461 200.7458,200.7461 113.2413,0 200.746,-92.652 200.746,-205.8933 z"
     inkscape:connector-curvature="0"
     style="fill:#78c257;stroke-width:51.47330475"
     inkscape:export-xdpi="13.764164"
     inkscape:export-ydpi="13.764164" /><g
     transform="matrix(3.9098402,0,0,3.9098402,-985.25969,3225.8805)"
     id="layer1"
     inkscape:export-xdpi="17.326012"
     inkscape:export-ydpi="17.326012"><g
       transform="matrix(21.016504,0,0,-21.016504,367.57882,493.02273)"
       id="g34479"><path
         inkscape:connector-curvature="0"
         id="path34481"
         style="fill:#77c159;fill-opacity:1;fill-rule:nonzero;stroke:none"
         d="m 0,0 c -1.121,0 -2.028,0.937 -2.028,2.102 0,1.143 0.907,2.094 2.028,2.094 0.745,0 1.49,-0.347 1.807,-0.981 C 1.829,3.171 1.858,3.112 1.858,3.038 V 1.18 C 1.858,1.143 1.836,1.062 1.821,1.04 1.475,0.406 0.767,0 0,0 M 3.68,-1.6 V 5.774 H 1.858 V 5.155 c -0.509,0.494 -1.202,0.766 -2.057,0.766 -2.087,0 -3.672,-1.696 -3.672,-3.819 0,-2.132 1.585,-3.85 3.672,-3.85 0.855,0 1.548,0.288 2.057,0.782 V -1.6 Z m 7.912,0 v 3.989 c 0,1.962 -1.526,3.532 -3.473,3.532 -1.954,0 -3.473,-1.57 -3.473,-3.532 V -1.6 h 1.821 v 3.989 c 0,0.966 0.679,1.704 1.652,1.704 0.966,0 1.652,-0.738 1.652,-1.704 V -1.6 Z M 16.223,0 c -1.121,0 -2.028,0.937 -2.028,2.102 0,1.143 0.907,2.094 2.028,2.094 0.745,0 1.453,-0.369 1.807,-0.981 0.022,-0.044 0.051,-0.103 0.051,-0.177 V 1.172 C 18.081,1.135 18.059,1.062 18.045,1.04 17.698,0.406 16.99,0 16.223,0 m 3.68,-1.6 V 7.986 H 18.081 V 5.155 c -0.508,0.494 -1.202,0.789 -2.057,0.789 -2.087,0 -3.672,-1.719 -3.672,-3.842 0,-2.132 1.585,-3.85 3.672,-3.85 0.855,0 1.549,0.288 2.057,0.782 V -1.6 Z m 2.787,0 v 3.938 c 0,1.165 0.612,1.784 1.777,1.784 v 1.799 c -2.345,0 -3.598,-1.246 -3.598,-3.583 V -1.6 Z m 5.759,1.688 c -1.106,0 -2.005,0.9 -2.005,2.014 0,1.106 0.899,2.005 2.005,2.005 1.121,0 2.014,-0.899 2.014,-2.005 0,-1.114 -0.893,-2.014 -2.014,-2.014 m 0,-1.836 c 2.132,0 3.857,1.718 3.857,3.85 0,2.123 -1.725,3.819 -3.857,3.819 -2.123,0 -3.849,-1.696 -3.849,-3.819 0,-2.132 1.726,-3.85 3.849,-3.85 m 5.597,8.082 c 0.583,0 1.055,0.48 1.055,1.062 0,0.59 -0.472,1.062 -1.055,1.062 -0.582,0 -1.054,-0.472 -1.054,-1.062 0,-0.582 0.472,-1.062 1.054,-1.062 m 0.907,-0.56 H 33.131 V -1.6 h 1.822 z M 39.651,0 c -1.121,0 -2.028,0.937 -2.028,2.102 0,1.143 0.907,2.094 2.028,2.094 0.745,0 1.452,-0.369 1.806,-0.981 0.023,-0.044 0.052,-0.103 0.052,-0.177 V 1.165 C 41.509,1.128 41.487,1.062 41.472,1.04 41.126,0.406 40.418,0 39.651,0 M 43.33,-1.6 V 7.986 H 41.509 V 5.155 C 41,5.649 40.307,5.921 39.452,5.921 c -2.087,0 -3.673,-1.696 -3.673,-3.819 0,-2.132 1.586,-3.857 3.673,-3.857 0.855,0 1.548,0.295 2.057,0.789 V -1.6 Z" /></g></g></svg>