<svg id="Layer_1" data-name="Layer 1" xmlns="http://www.w3.org/2000/svg" viewBox="0 0 1499.29 1499.22"><path d="M2547.56,1719.06c1.37-2.64,2.81-5.25,4.12-7.92q86.7-176.69,173.39-353.38,64.57-131.62,129.14-263.24,78.21-159.43,156.43-318.85,77.88-158.74,155.75-317.5c13.05-26.61,26.16-53.18,39.06-79.86,1.84-3.8,4-5.4,8.36-5.33,15.67.25,31.34.17,47,0,3.13,0,4.74,1.09,6.1,3.88q43.2,89,86.59,177.8,91.41,186.6,183,373.11L3665.67,1191q91.41,186.33,182.8,372.67,59.28,120.87,118.56,241.74c5.06,10.32,10,20.7,15.37,30.86a28.65,28.65,0,0,1,3.65,15.73,100.7,100.7,0,0,0,0,13c.25,3.94-1.2,5.2-5.15,5.17-17.66-.16-35.33,0-53,0q-359.74,0-719.49.1c-5.84,0-8.74-1.79-11.3-7q-93.29-190.68-186.9-381.21-64.47-131.38-128.9-262.79c-2.62-5.34-5.21-10.69-8.25-16.93-1.31,2.05-2.2,3.17-2.82,4.43q-90.34,184.07-180.64,368.15-51.48,104.92-102.95,209.87c-12.83,26.15-26.11,52.09-38.15,78.6-3.17,7-6.82,8-13.26,7.86-14.32-.37-28.66-.25-43,0-4.2.06-5.87-1.33-5.34-5.45a29.17,29.17,0,0,0,0-3.5V380.79c0-1.5.09-3,0-4.5-.2-2.9.87-4.26,4-4.25q25.5.12,51,0c3,0,4.32,1.12,4.1,4.13-.1,1.49,0,3,0,4.5V1718.86Zm1351.08,92q-331.42-675.6-662.23-1349.91c-1.63,2.94-2.41,4.2-3.06,5.52q-78.55,160.08-157.08,320.17Q2993.77,955,2911.16,1123.1c-2.13,4.34-2.14,7.79,0,12.12q56.36,114.48,112.47,229.1Q3131.87,1585,3240,1805.63c2.06,4.21,4.52,5.55,9.14,5.55q321-.18,642-.1Z" transform="translate(-2486.81 -372.04)"/></svg>